<?xml version="1.0" standalone="no"?><!DOCTYPE svg PUBLIC "-//W3C//DTD SVG 1.1//EN" "http://www.w3.org/Graphics/SVG/1.1/DTD/svg11.dtd"><svg t="1505908948156" class="icon" style="" viewBox="0 0 1024 1024" version="1.1" xmlns="http://www.w3.org/2000/svg" p-id="11675" xmlns:xlink="http://www.w3.org/1999/xlink" width="200" height="200"><defs><style type="text/css"></style></defs><path d="M512 1024C794.769795 1024 1024 794.769795 1024 512 1024 229.230205 794.769795 0 512 0 229.230205 0 0 229.230205 0 512 0 794.769795 229.230205 1024 512 1024L512 1024 512 1024ZM512 996.324324C244.515065 996.324324 27.675676 779.484935 27.675676 512 27.675676 244.515065 244.515065 27.675676 512 27.675676 779.484935 27.675676 996.324324 244.515065 996.324324 512 996.324324 779.484935 779.484935 996.324324 512 996.324324L512 996.324324 512 996.324324ZM262.918919 512 262.918919 539.675676 761.081081 539.675676 761.081081 512 524.650745 512 756.125004 235.287165 718.966217 235.287165 508.540541 488.970877 307.385136 235.287165 269.927369 235.287165 492.430336 512 262.918919 512ZM502.036757 664.216216 262.918919 664.216216 262.918919 691.891892 502.036757 691.891892 502.036757 844.108108 521.963243 844.108108 521.963243 691.891892 761.081081 691.891892 761.081081 664.216216 521.963243 664.216216 521.963243 539.675676 502.036757 539.675676 502.036757 664.216216Z" p-id="11676" fill="#f4ea2a"></path></svg>