<?xml version="1.0" standalone="no"?><!DOCTYPE svg PUBLIC "-//W3C//DTD SVG 1.1//EN" "http://www.w3.org/Graphics/SVG/1.1/DTD/svg11.dtd"><svg t="1505908808284" class="icon" style="" viewBox="0 0 1024 1024" version="1.1" xmlns="http://www.w3.org/2000/svg" p-id="7376" xmlns:xlink="http://www.w3.org/1999/xlink" width="200" height="200"><defs><style type="text/css"></style></defs><path d="M512.00512 117.586753l26.089433 32.191985c21.666107 26.867611 56.069754 42.922646 91.824974 42.922646 14.089113 0 27.768659-2.49836 40.547156-7.413167l38.704104-14.867291 6.471162 40.915767c7.699864 48.533717 48.410847 89.285657 96.903608 96.944564l40.87481 6.471162L838.634989 353.456523c-17.611391 45.830574-2.580274 101.531717 35.509479 132.413087l32.232941 26.089433-32.232941 26.089433c-38.171666 30.881369-53.12087 86.582513-35.509479 132.413087l14.867291 38.663147-40.956723 6.471162c-48.492761 7.658907-89.285657 48.451804-96.862651 96.903608l-6.471162 40.915767-38.663147-14.867291c-12.819454-4.87385-26.458043-7.413167-40.547156-7.413167-35.75522 0-70.158867 16.055036-91.784017 42.881689L512.00512 906.331333l-26.089433-32.232941c-21.74802-26.785697-56.069754-42.881689-91.824974-42.881689-14.13007 0-27.809615 2.49836-40.588113 7.454124l-38.663147 14.826334L308.368291 812.581393c-7.699864-48.533717-48.451804-89.326614-96.944564-96.944564l-40.915767-6.471162 14.867291-38.62219c17.611391-45.830574 2.662187-101.531717-35.509479-132.37213L117.673786 511.959043l32.191985-26.089433C188.037437 454.988241 202.986641 399.287097 185.37525 353.456523L170.507959 314.793377l40.915767-6.471162C259.916487 300.62235 300.668427 259.87041 308.368291 211.336693l6.471162-40.915767L353.5026 185.288217c12.819454 4.87385 26.458043 7.413167 40.588113 7.413167 35.75522 0 70.076954-16.055036 91.824974-42.922646L512.00512 117.586753M512.00512 0c-5.856811 0-11.672666 2.703144-16.136949 8.191345L422.719462 98.62379c-6.430206 7.986561-17.857131 12.737541-28.587793 12.737541-3.972802 0-7.863691-0.655308-11.426926-2.006879l-108.535317-41.734901c-2.866971-1.064875-5.733941-1.597312-8.396128-1.597312-9.7477 0-17.857131 6.798816-19.577314 17.734261L228.052156 198.681066C225.799536 212.565395 212.652428 225.75346 198.727142 227.965123L83.802576 246.149908c-13.925286 2.211663-21.174626 14.74442-16.136949 27.932485L109.400528 382.658667c5.078634 13.106152 0.24574 31.168067-10.730662 40.014719L8.237421 495.863051c-10.935445 8.887609-10.935445 23.345332 0 32.232941l90.432445 73.230622c10.976402 8.805696 15.809295 26.826654 10.730662 40.055676l-41.734901 108.49436c-5.037677 13.147108 2.211663 25.761779 16.136949 27.973442l114.924566 18.184785c13.925286 2.211663 27.072394 15.358771 29.325014 29.284057l18.143828 114.924566c1.720182 10.935445 9.788657 17.734261 19.577314 17.734261 2.662187 0 5.529158-0.532437 8.355172-1.597312l108.535317-41.734901c3.563235-1.351572 7.49508-2.006879 11.426926-2.006879 10.771618 0 22.116631 4.669066 28.587793 12.737541l73.189665 90.432445c4.423326 5.529158 10.280138 8.191345 16.136949 8.191345s11.672666-2.662187 16.095992-8.191345l73.189665-90.432445c6.471162-7.945604 17.898088-12.737541 28.62875-12.737541 3.931845 0 7.822734 0.655308 11.426926 2.006879l108.535317 41.734901c2.7441 1.064875 5.692985 1.597312 8.314215 1.597312 9.706743 0 17.857131-6.798816 19.618271-17.734261l18.143828-114.924566c2.25262-13.925286 15.358771-27.072394 29.284057-29.284057l114.965523-18.184785c13.925286-2.211663 21.133669-14.74442 16.095992-27.973442l-41.693944-108.49436c-5.11959-13.147108-0.24574-31.24998 10.730662-40.055676l90.391489-73.230622c10.976402-8.887609 10.976402-23.345332 0-32.232941l-90.391489-73.189665c-10.976402-8.846652-15.850252-26.867611-10.730662-40.014719l41.693944-108.576274c5.037677-13.147108-2.170706-25.720822-16.095992-27.932485l-114.965523-18.143828c-13.925286-2.211663-27.031437-15.399728-29.284057-29.325014L777.814255 83.756499c-1.761139-10.935445-9.829614-17.734261-19.618271-17.734261-2.62123 0-5.570114 0.532437-8.314215 1.597312l-108.535317 41.734901c-3.604192 1.351572-7.536037 2.006879-11.426926 2.006879-10.812575 0-22.157587-4.710023-28.62875-12.737541L528.142069 8.191345C523.718743 2.703144 517.861931 0 512.00512 0L512.00512 0 512.00512 0zM676.569234 342.152468c-12.491801-12.491801-32.806335-12.491801-45.216223 0L350.553716 622.951764c-12.491801 12.532757-12.491801 32.765379 0 45.216223 12.532757 12.573714 32.806335 12.573714 45.298136 0l280.717383-280.717383C689.142949 374.958803 689.142949 354.685225 676.569234 342.152468L676.569234 342.152468zM422.719462 495.904008c45.052396 0 81.544836-36.533397 81.544836-81.544836 0-45.011439-36.533397-81.544836-81.544836-81.544836-45.011439 0-81.544836 36.533397-81.544836 81.544836C341.174626 459.37061 377.667067 495.904008 422.719462 495.904008L422.719462 495.904008zM422.719462 377.866731c20.109751 0 36.451484 16.300776 36.451484 36.451484 0 20.150708-16.300776 36.451484-36.451484 36.451484-20.150708 0-36.451484-16.300776-36.451484-36.451484C386.267979 394.167507 402.609711 377.866731 422.719462 377.866731L422.719462 377.866731zM604.403488 514.539317c-45.052396 0-81.544836 36.533397-81.544836 81.585793 0 44.970482 36.533397 81.50388 81.544836 81.50388 45.052396 0 81.50388-36.574354 81.50388-81.50388C685.907367 551.072714 649.414927 514.539317 604.403488 514.539317L604.403488 514.539317zM604.403488 632.49468c-20.150708 0-36.492441-16.300776-36.492441-36.492441s16.300776-36.451484 36.492441-36.451484c20.068794 0 36.410527 16.259819 36.410527 36.451484S624.513239 632.49468 604.403488 632.49468L604.403488 632.49468z" p-id="7377" fill="#f4ea2a"></path></svg>