<?xml version="1.0" standalone="no"?><!DOCTYPE svg PUBLIC "-//W3C//DTD SVG 1.1//EN" "http://www.w3.org/Graphics/SVG/1.1/DTD/svg11.dtd"><svg t="1505909115169" class="icon" style="" viewBox="0 0 1024 1024" version="1.1" xmlns="http://www.w3.org/2000/svg" p-id="15706" xmlns:xlink="http://www.w3.org/1999/xlink" width="200" height="200"><defs><style type="text/css"></style></defs><path d="M174.4 956.8c-36.8 0-67.2-30.4-67.2-67.2v-208c0-12.8 9.6-22.4 22.4-22.4s22.4 11.2 22.4 22.4v208c0 11.2 9.6 22.4 22.4 22.4h675.2c11.2 0 22.4-9.6 22.4-22.4v-208c0-12.8 11.2-22.4 22.4-22.4s22.4 11.2 22.4 22.4v208c0 36.8-30.4 67.2-67.2 67.2H174.4zM521.6 587.2c-57.6 0-112-33.6-156.8-65.6l-3.2-1.6-3.2 1.6c-56 38.4-108.8 57.6-156.8 57.6-41.6 0-78.4-14.4-108.8-41.6-27.2-24-43.2-51.2-52.8-72-9.6-20.8-12.8-57.6-6.4-84.8 1.6-6.4 11.2-38.4 20.8-62.4C73.6 272 116.8 185.6 148.8 123.2c24-48 54.4-57.6 75.2-57.6h576c20.8 0 49.6 9.6 72 57.6 9.6 19.2 22.4 46.4 36.8 75.2 27.2 56 57.6 118.4 73.6 153.6 8 17.6 8 35.2 8 44.8v3.2c0 4.8 1.6 30.4-11.2 54.4-20.8 41.6-44.8 73.6-70.4 94.4-25.6 20.8-54.4 30.4-86.4 30.4-44.8 0-96-20.8-158.4-65.6l-3.2-3.2-3.2 3.2c-19.2 22.4-38.4 38.4-57.6 51.2-24 14.4-49.6 22.4-78.4 22.4z" fill="" p-id="15707"></path><path d="M363.2 467.2c4.8 0 9.6 1.6 14.4 4.8 44.8 33.6 96 68.8 145.6 68.8 41.6 0 80-25.6 116.8-75.2 3.2-4.8 9.6-8 16-9.6h3.2c4.8 0 9.6 1.6 14.4 4.8 64 49.6 112 72 150.4 72 44.8 0 83.2-32 116.8-99.2 4.8-9.6 6.4-24 4.8-30.4v-4.8c0-6.4 0-19.2-4.8-27.2-14.4-33.6-44.8-94.4-72-150.4-14.4-28.8-28.8-57.6-36.8-76.8-6.4-14.4-17.6-32-30.4-32h-576c-14.4 0-27.2 17.6-33.6 32-32 60.8-75.2 147.2-92.8 190.4-8 20.8-17.6 49.6-19.2 54.4-4.8 17.6-1.6 44.8 3.2 54.4 12.8 25.6 48 86.4 120 86.4 41.6 0 91.2-20.8 145.6-60.8 3.2 0 8-1.6 14.4-1.6z" fill="#FFEB00" p-id="15708"></path><path d="M225.6 366.4c-12.8 0-22.4-9.6-22.4-22.4 0-12.8 9.6-22.4 22.4-22.4h571.2c12.8 0 22.4 9.6 22.4 22.4 0 12.8-9.6 22.4-22.4 22.4H225.6z" fill="" p-id="15709"></path></svg>