<?xml version="1.0" standalone="no"?><!DOCTYPE svg PUBLIC "-//W3C//DTD SVG 1.1//EN" "http://www.w3.org/Graphics/SVG/1.1/DTD/svg11.dtd"><svg t="1505908972708" class="icon" style="" viewBox="0 0 1024 1024" version="1.1" xmlns="http://www.w3.org/2000/svg" p-id="12404" xmlns:xlink="http://www.w3.org/1999/xlink" width="200" height="200"><defs><style type="text/css"></style></defs><path d="M1024 862.875C1024 968.656 766.428 1024 512 1024S0 968.656 0 862.875C0 769 198.394 729.874 283.72 717.395c12.645-1.786 24.433 7.145 26.242 20.052 1.834 12.93-6.977 24.91-19.67 26.767-177.676 25.957-243.879 74.3-243.879 98.66C46.413 909.289 227.78 976.73 512 976.73s465.587-67.44 465.587-113.854c0-24.552-66.846-73.157-246.237-98.995-12.693-1.833-21.527-13.812-19.741-26.72 1.81-12.93 13.597-21.836 26.219-20.098C823.868 729.469 1024 768.476 1024 862.875zM413.815 301.247c0-55.154 44.032-100.02 98.161-100.02 54.153 0 98.209 44.866 98.209 100.02 0 55.153-44.056 100.042-98.209 100.042-54.129 0-98.16-44.89-98.16-100.042z m242.783 0c0-81.23-64.869-147.314-144.622-147.314-79.705 0-144.55 66.084-144.55 147.314 0 81.229 64.845 147.313 144.55 147.313 79.753 0 144.622-66.084 144.622-147.313zM512 47.27c142.765 0 258.93 118.355 258.93 263.834 0 201.562-200.538 428.032-259.12 489.877-58.75-60.725-258.74-282.695-258.74-489.877 0-145.479 116.142-263.834 258.93-263.834z m-15.86 804.364l16.05 15.264 15.86-15.455c11.812-11.526 289.293-285.243 289.293-540.339C817.343 139.55 680.365 0 512 0S206.657 139.55 206.657 311.105c0 261.978 277.671 529.29 289.483 540.553v-0.023z" fill="#f4ea2a" p-id="12405"></path></svg>