<?xml version="1.0" standalone="no"?><!DOCTYPE svg PUBLIC "-//W3C//DTD SVG 1.1//EN" "http://www.w3.org/Graphics/SVG/1.1/DTD/svg11.dtd"><svg t="1505909041613" class="icon" style="" viewBox="0 0 1024 1024" version="1.1" xmlns="http://www.w3.org/2000/svg" p-id="14229" xmlns:xlink="http://www.w3.org/1999/xlink" width="200" height="200"><defs><style type="text/css"></style></defs><path d="M729.201 186.19H294.798c-59.979 0-108.603 48.626-108.603 108.604v325.808c0 59.979 48.625 108.604 108.603 108.604h108.603L510.384 837.81l110.224-108.604h108.594c59.985 0 108.604-48.625 108.604-108.604V294.795c-0.001-59.978-48.619-108.605-108.605-108.605zM511.997 403.397c29.988 0 54.3 24.312 54.3 54.3 0 29.989-24.312 54.303-54.3 54.303-29.99 0-54.302-24.313-54.302-54.303 0-29.987 24.313-54.3 54.302-54.3zM349.099 512c-29.988 0-54.3-24.313-54.3-54.303 0-29.988 24.312-54.3 54.3-54.3 29.99 0 54.302 24.312 54.302 54.3 0 29.991-24.312 54.303-54.302 54.303z m325.81 0c-29.988 0-54.302-24.313-54.302-54.303 0-29.988 24.313-54.3 54.302-54.3s54.3 24.312 54.3 54.3c0 29.991-24.312 54.303-54.3 54.303z" p-id="14230" fill="#f4ea2a"></path></svg>