<?xml version="1.0" standalone="no"?><!DOCTYPE svg PUBLIC "-//W3C//DTD SVG 1.1//EN" "http://www.w3.org/Graphics/SVG/1.1/DTD/svg11.dtd"><svg t="1505909130061" class="icon" style="" viewBox="0 0 1024 1024" version="1.1" xmlns="http://www.w3.org/2000/svg" p-id="15846" xmlns:xlink="http://www.w3.org/1999/xlink" width="200" height="200"><defs><style type="text/css"></style></defs><path d="M268.8 955.2c-32 0-59.2-17.6-75.2-44.8-8-16-11.2-35.2-8-52.8l35.2-200c1.6-11.2-1.6-20.8-9.6-28.8l-148.8-142.4c-16-14.4-25.6-36.8-25.6-59.2 0-22.4 8-43.2 24-59.2 12.8-12.8 30.4-22.4 48-24l204.8-28.8c11.2-1.6 19.2-8 24-17.6l91.2-184c14.4-28.8 43.2-46.4 75.2-46.4s60.8 17.6 75.2 46.4l91.2 182.4c4.8 9.6 14.4 16 24 17.6l204.8 30.4c22.4 3.2 41.6 14.4 56 33.6 12.8 17.6 19.2 40 16 60.8-3.2 17.6-11.2 35.2-24 48L800 628.8c-8 8-11.2 17.6-9.6 28.8l35.2 201.6c3.2 22.4-1.6 44.8-14.4 62.4s-32 30.4-54.4 33.6c-4.8 0-9.6 1.6-14.4 1.6-14.4 0-27.2-3.2-40-9.6l-182.4-94.4c-9.6-4.8-20.8-4.8-28.8 0l-184 94.4c-11.2 4.8-25.6 8-38.4 8z" fill="" p-id="15847"></path><path d="M726.4 904c4.8 3.2 11.2 4.8 16 4.8h6.4c9.6-1.6 17.6-6.4 22.4-14.4 4.8-8 8-17.6 6.4-25.6L739.2 640c-1.6-11.2 1.6-20.8 9.6-28.8l166.4-160c9.6-9.6 12.8-24 9.6-36.8-4.8-12.8-16-22.4-28.8-24l-230.4-33.6c-11.2-1.6-19.2-8-24-17.6L537.6 136c-6.4-12.8-17.6-19.2-32-19.2-12.8 0-25.6 8-32 19.2l-102.4 206.4c-4.8 9.6-14.4 16-24 17.6l-230.4 32c-8 1.6-14.4 4.8-20.8 9.6-6.4 6.4-9.6 16-9.6 25.6s4.8 17.6 11.2 24l166.4 160c8 8 11.2 17.6 9.6 28.8l-40 225.6c-1.6 8 0 16 3.2 22.4 6.4 11.2 17.6 19.2 32 19.2 6.4 0 11.2-1.6 16-4.8l206.4-107.2c9.6-4.8 20.8-4.8 28.8 0l206.4 108.8z" fill="#FFEB00" p-id="15848"></path><path d="M840 235.2c-12.8 0-22.4-11.2-22.4-24s9.6-24 22.4-24H960c9.6 0 17.6 4.8 22.4 11.2 4.8 8 4.8 17.6 0 24-4.8 8-12.8 11.2-20.8 11.2l-121.6 1.6zM720 116.8c-9.6 0-17.6-4.8-22.4-11.2-4.8-8-4.8-17.6 0-24 4.8-8 12.8-11.2 20.8-11.2H960c9.6 0 17.6 4.8 22.4 11.2 4.8 8 4.8 17.6 0 24-4.8 8-12.8 11.2-20.8 11.2H720z" fill="" p-id="15849"></path></svg>