<?xml version="1.0" standalone="no"?><!DOCTYPE svg PUBLIC "-//W3C//DTD SVG 1.1//EN" "http://www.w3.org/Graphics/SVG/1.1/DTD/svg11.dtd"><svg t="1505909084994" class="icon" style="" viewBox="0 0 1024 1024" version="1.1" xmlns="http://www.w3.org/2000/svg" p-id="15046" xmlns:xlink="http://www.w3.org/1999/xlink" width="200" height="200"><defs><style type="text/css"></style></defs><path d="M848.00512 791.99232c-3.20512 6.41024-6.42048 9.56416-12.83072 9.56416H172.78976c-6.41024 0-12.76928-3.14368-12.76928-9.56416L89.56928 337.6128c0-3.20512 3.20512-6.41024 6.41024-3.20512l179.2 128c3.20512 3.20512 3.20512 3.20512 6.42048 0L505.58976 209.6128c3.20512-3.20512 3.20512-3.20512 6.41024 0l198.37952 252.79488c3.20512 3.20512 3.20512 3.20512 6.41024 0l208.00512-128c3.20512-3.20512 6.41024 0 6.41024 6.42048l-83.2 451.16416zM201.59488 855.9616h604.83584c15.9744 0 31.9488 16.03584 31.9488 32.02048v22.39488c3.20512 19.2512-12.76928 32.02048-28.80512 32.02048H201.59488c-19.17952 0-32.02048-15.9744-32.02048-32.02048v-22.39488c0-19.18976 16.04608-32.02048 32.02048-32.02048zM57.62048 334.40768C25.78432 334.40768 0 308.61312 0 276.7872s25.78432-57.62048 57.62048-57.62048c31.76448 0 57.5488 25.78432 57.5488 57.62048s-25.78432 57.62048-57.5488 57.62048zM512 196.78208a57.58976 57.58976 0 0 1-57.62048-57.5488 57.62048 57.62048 0 0 1 115.23072 0A57.58976 57.58976 0 0 1 512 196.78208zM966.38976 334.40768c-31.76448 0-57.55904-25.78432-57.55904-57.62048a57.6 57.6 0 1 1 115.16928 0 57.6 57.6 0 0 1-57.61024 57.62048z" p-id="15047" fill="#f4ea2a"></path></svg>