<?xml version="1.0" standalone="no"?><!DOCTYPE svg PUBLIC "-//W3C//DTD SVG 1.1//EN" "http://www.w3.org/Graphics/SVG/1.1/DTD/svg11.dtd"><svg t="1505909250716" class="icon" style="" viewBox="0 0 1026 1024" version="1.1" xmlns="http://www.w3.org/2000/svg" p-id="18635" xmlns:xlink="http://www.w3.org/1999/xlink" width="200.390625" height="200"><defs><style type="text/css"></style></defs><path d="M512.383165 1023.994013a519.12048 519.12048 0 0 1-59.203954-3.393603l-20.523266-2.365843-6.253369-19.689084c-32.534086-102.4457-67.818178-116.258593-98.041301-116.258593-25.683019 0-58.662135 10.766532-100.822239 32.915255l-18.50267 9.719814-16.311446-13.068515a515.34471 515.34471 0 0 1-79.811037-79.811036l-13.068515-16.312444 9.720812-18.503668c30.332884-57.738149 39.521855-99.331488 28.091769-127.154842-11.545834-28.105738-47.996383-51.561612-111.434109-71.7077l-19.689084-6.25337-2.366841-20.522267A518.62955 518.62955 0 0 1 0.773314 512.383165c0-19.753943 1.14251-39.674522 3.393603-59.204952l2.366841-20.522268 19.689084-6.253369c63.437726-20.146088 99.888275-43.601961 111.434109-71.706702 11.430086-27.823354 2.241115-69.416693-28.090771-127.156838l-9.720812-18.50267 13.068515-16.311446a515.34471 515.34471 0 0 1 79.811037-79.811037l16.311446-13.069513 18.503668 9.720812c42.166091 22.151716 75.144209 32.918249 100.818248 32.915255 30.226117-0.002993 65.513202-13.818879 98.045291-116.257595L432.656943 6.533758l20.522268-2.366841A518.882997 518.882997 0 0 1 512.384163 0.773314a519.088549 519.088549 0 0 1 59.205949 3.393603l20.52127 2.366841 6.25337 19.689084c32.534086 102.4457 67.818178 116.257595 98.040303 116.257595 25.683019 0 58.663133-10.766532 100.823236-32.914257l18.50267-9.720812 16.311447 13.068515a515.177075 515.177075 0 0 1 79.812034 79.811037l13.068515 16.311446-9.719814 18.503668c-30.331886 57.739147-39.520857 99.331488-28.090771 127.15584 11.545834 28.105738 47.996383 51.561612 111.435107 71.707699l19.689083 6.25337 2.365844 20.523266a519.185338 519.185338 0 0 1 3.392605 59.203954c0 19.751947-1.14251 39.671528-3.393603 59.204951l-2.365843 20.522268-19.689084 6.25337c-63.437726 20.146088-99.888275 43.601961-111.434109 71.706702-11.430086 27.823354-2.241115 69.416693 28.090771 127.156837l9.719814 18.50267-13.068515 16.311447a515.226966 515.226966 0 0 1-79.812034 79.812034l-16.311447 13.068515-18.50267-9.719814C755.067189 893.053423 722.088074 882.28689 696.406052 882.28689c-30.224121 0-65.507215 13.811894-98.042298 116.258593l-6.25337 19.689084-20.523265 2.364845a518.918919 518.918919 0 0 1-59.203954 3.394601zM480.454759 959.009659a455.838415 455.838415 0 0 0 63.856812 0c15.145986-42.261882 32.543066-73.854021 52.918654-96.186344 26.877416-29.458789 60.243688-44.39623 99.175827-44.39623 32.147928 0 67.871062 9.76272 111.248513 30.548414a451.677484 451.677484 0 0 0 41.333905-41.336899c-31.989273-67.053844-38.607847-118.845953-20.948339-161.834252 10.450222-25.437554 28.830159-46.809969 56.190522-65.336586 19.758932-13.379836 44.351328-25.283889 74.779006-36.164174a455.314557 455.314557 0 0 0 1.123551-31.919425c0-10.623843-0.37618-21.300571-1.123551-31.919426-30.427677-10.880284-55.021071-22.784337-74.779006-36.164173-27.360363-18.527616-45.7403-39.90003-56.190522-65.337585-17.659508-42.987301-11.039936-94.779411 20.948339-161.834252a451.793232 451.793232 0 0 0-41.333905-41.3359c-43.378449 20.785694-79.100585 30.548414-111.24951 30.549411-38.936131 0-72.304399-14.935445-99.177824-44.392238-20.372594-22.330327-37.769674-53.924462-52.91566-96.190336a455.231737 455.231737 0 0 0-63.856812 0c-15.145986 42.261882-32.543066 73.851028-52.919652 96.185346-26.874422 29.455796-60.239696 44.393237-99.170838 44.398226h-0.019957c-32.138947 0.000998-67.855097-9.76272-111.233546-30.549412a451.793232 451.793232 0 0 0-41.333905 41.335901c31.989273 67.054841 38.608845 118.846951 20.949337 161.83525-10.450222 25.437554-28.830159 46.809969-56.190522 65.336586-19.757934 13.379836-44.351328 25.283889-74.780003 36.164174a455.856376 455.856376 0 0 0-1.122553 31.919425c0 10.623843 0.37618 21.302567 1.122553 31.919426 30.428675 10.880284 55.022069 22.784337 74.780003 36.164174 27.360363 18.527616 45.7403 39.90003 56.190522 65.337584 17.659508 42.987301 11.038939 94.778413-20.949337 161.833254a451.804208 451.804208 0 0 0 41.333905 41.336899c43.378449-20.785694 79.101583-30.549412 111.249511-30.549412 38.936131 0 72.303401 14.936443 99.177824 44.393236 20.373592 22.329329 37.769674 53.922466 52.916658 96.189338z" fill="#f4ea2a" p-id="18636"></path><path d="M512.384163 715.271931c-111.873151 0-202.888766-91.015614-202.888766-202.888766s91.015614-202.888766 202.888766-202.888766S715.272929 400.510013 715.272929 512.383165s-91.015614 202.888766-202.888766 202.888766z m0-341.916729c-76.659905 0-139.027962 62.368057-139.027963 139.027963s62.368057 139.027962 139.027963 139.027962S651.412125 589.04307 651.412125 512.383165s-62.368057-139.027962-139.027962-139.027963z" fill="#f4ea2a" p-id="18637"></path></svg>